<?xml version="1.0" standalone="no"?>
<!DOCTYPE svg PUBLIC "-//W3C//DTD SVG 20010904//EN"
 "http://www.w3.org/TR/2001/REC-SVG-20010904/DTD/svg10.dtd">
<svg version="1.0" xmlns="http://www.w3.org/2000/svg"
 width="512.000000pt" height="512.000000pt" viewBox="0 0 512.000000 512.000000"
 preserveAspectRatio="xMidYMid meet">
<metadata>
Created by potrace 1.14, written by Peter Selinger 2001-2017
</metadata>
<g transform="translate(0.000000,512.000000) scale(0.100000,-0.100000)"
fill="#000000" stroke="none">
<path d="M2369 5115 c-2 -2 -36 -6 -74 -9 -39 -3 -79 -8 -90 -10 -11 -2 -40
-7 -65 -11 -25 -3 -56 -8 -70 -11 -14 -2 -60 -13 -102 -24 -42 -11 -87 -22
-100 -24 -13 -3 -24 -5 -25 -7 -2 -1 -6 -2 -10 -3 -26 -5 -186 -62 -246 -88
-40 -16 -85 -35 -102 -41 -16 -7 -36 -18 -43 -24 -7 -7 -18 -13 -24 -13 -13 0
-204 -107 -244 -137 -17 -13 -34 -23 -38 -23 -4 0 -12 -5 -19 -10 -7 -6 -46
-36 -87 -66 -41 -31 -100 -77 -130 -102 -62 -51 -249 -239 -295 -296 -16 -20
-45 -54 -62 -74 -18 -20 -33 -42 -33 -49 0 -6 -4 -13 -9 -15 -12 -4 -151 -214
-151 -227 0 -5 -3 -11 -7 -13 -14 -6 -100 -179 -148 -298 -62 -150 -115 -319
-139 -440 -43 -219 -51 -300 -51 -535 0 -171 9 -323 20 -357 2 -7 6 -31 9 -53
11 -82 54 -275 73 -325 4 -8 7 -17 8 -20 49 -162 157 -408 230 -525 14 -22 28
-47 32 -55 4 -8 22 -36 40 -62 18 -26 33 -52 33 -58 0 -5 3 -10 8 -10 4 0 18
-17 32 -38 14 -20 27 -39 30 -42 3 -3 21 -25 40 -50 69 -90 246 -273 339 -350
29 -25 59 -51 67 -58 7 -6 16 -12 21 -12 5 0 15 -9 23 -20 8 -11 18 -20 23
-20 4 0 31 -18 60 -39 146 -110 451 -265 642 -326 81 -25 183 -56 201 -59 11
-2 50 -11 89 -20 38 -9 85 -19 105 -21 19 -3 44 -7 56 -9 139 -28 565 -28 729
-1 120 20 137 23 235 46 145 33 430 132 438 151 2 5 9 8 16 8 16 0 117 49 211
103 62 35 232 144 245 157 3 3 34 27 70 55 95 73 114 90 225 201 120 120 145
149 210 234 28 36 52 67 55 70 49 49 223 352 274 480 15 36 31 74 36 85 9 19
58 161 79 230 11 34 31 110 37 140 15 70 26 125 30 160 3 22 7 46 9 53 19 57
27 484 12 612 -15 132 -32 236 -41 268 -3 9 -7 28 -10 42 -3 14 -10 43 -16 65
-6 22 -13 50 -16 63 -8 39 -65 204 -88 257 -13 27 -24 55 -25 60 -4 22 -114
240 -122 243 -5 2 -9 10 -9 17 0 8 -6 20 -12 27 -7 7 -21 30 -32 50 -10 20
-27 46 -37 57 -11 11 -19 24 -19 28 0 4 -15 27 -33 49 -17 23 -39 52 -47 64
-8 12 -19 28 -25 34 -5 6 -35 41 -65 76 -85 102 -257 270 -346 337 -16 13 -47
37 -69 54 -79 61 -234 159 -346 216 -166 86 -274 130 -474 192 -98 31 -271 67
-370 77 -33 4 -64 9 -69 12 -10 6 -452 13 -457 7z"/>
</g>
</svg>
